<?xml version="1.0" encoding="iso-8859-1"?>
<!-- Generator: Adobe Illustrator 19.0.0, SVG Export Plug-In . SVG Version: 6.00 Build 0)  -->
<svg version="1.1" id="Layer_1" xmlns="http://www.w3.org/2000/svg" xmlns:xlink="http://www.w3.org/1999/xlink" x="0px" y="0px"
	 viewBox="0 0 512 512" style="enable-background:new 0 0 512 512;" xml:space="preserve">
<path style="fill:#88ACB5;" d="M177.596,334.219c-5.185-5.185-9.746-10.748-13.676-16.619l12.027-12.027
	C175.832,322.5,177.596,334.219,177.596,334.219z"/>
<path style="fill:#5195AF;" d="M303.398,303.402c-43.246,43.246-125.801,30.818-125.801,30.818
	c14.051,14.051,30.94,23.536,48.823,28.457l32.209,32.209c0,0,38.092-23.17,75.589-60.666l137.042-137.042
	c43.254-43.254,43.246-113.374,0-156.62c0,0,12.436,82.547-30.818,125.801L303.398,303.402z"/>
<path style="fill:#88ACB5;" d="M471.258,40.557c-43.246-43.246-113.366-43.254-156.62,0L177.596,177.599l-31.111,95.429
	c2.434,15.672,8.252,30.918,17.436,44.571l1.518-1.518c2.867,6.764,6.904,12.882,12.158,18.136
	c15.24,15.239,37.815,20.279,61.969,16.094s49.918-17.589,71.538-39.209l137.041-137.04
	C491.397,130.809,501.745,71.045,471.258,40.557z M431.401,157.32l-68.71,68.71l-14.4,3.613l-50.142,60.928l-3.791,3.791
	c-10.271,10.271-23.931,15.918-38.454,15.926c-14.523-0.008-28.176-5.663-38.446-15.933c-5.293-5.293-9.361-11.488-12.057-18.237
	c-2.534-6.34-3.876-13.183-3.876-20.209c0.008-14.523,5.663-28.176,15.933-38.446L354.502,80.421
	c10.271-10.271,23.923-15.926,38.446-15.933c14.531,0,28.184,5.655,38.454,15.926c10.271,10.271,15.926,23.923,15.926,38.454
	C447.319,133.391,441.672,147.051,431.401,157.32z"/>
<g>
	<path style="fill:#FFBE35;" d="M328.433,260.291l34.258-34.258c-4.965-17.669-14.39-34.347-28.291-48.248
		C334.401,177.784,340.803,220.297,328.433,260.291z"/>
	<path style="fill:#FFBE35;" d="M270.244,398.561l-72.885,72.885c-43.246,43.246-113.374,43.246-156.62,0
		c0,0,82.554,12.428,125.801-30.818l47.537-47.538L270.244,398.561z"/>
</g>
<path style="fill:#F3A933;" d="M334.4,334.404l-64.157,64.157c-18.815,1.88-37.93,0.053-56.167-5.471l27.383-27.382
	c32.937,4.307,67.454-6.187,92.756-31.489l5.324-5.324C337.899,330.767,336.188,332.616,334.4,334.404z"/>
<path style="fill:#FFCD60;" d="M334.4,177.784c-43.245-43.246-113.365-43.254-156.619,0L40.739,314.826
	C-2.502,358.067-2.507,428.183,40.724,471.43c15.255,15.257,37.83,20.295,61.984,16.111s49.918-17.589,71.538-39.209l52.107-52.107
	c0,0-7.03-9.712-25.587-7.897l-43.262,43.262c-10.271,10.271-23.931,15.918-38.454,15.926c-14.523-0.008-28.176-5.663-38.446-15.933
	s-15.926-23.923-15.933-38.446c0.008-14.523,5.663-28.176,15.933-38.446l137.042-137.042c10.271-10.271,23.923-15.926,38.446-15.933
	c14.531,0,28.184,5.655,38.454,15.926c10.271,10.271,15.926,23.923,15.926,38.454c-0.008,12.72-4.345,24.777-12.32,34.478
	l52.638-52.637C354.417,214.458,349.262,192.646,334.4,177.784z"/>
<path style="fill:#FFBE35;" d="M255.921,366.655l-29.571,29.571c-8.706-1.819-17.273-4.453-25.587-7.897l25.657-25.657
	C236.066,365.323,245.998,366.655,255.921,366.655z"/>
<path d="M264.376,392.872l-72.796,72.796c-19.374,19.374-45.133,30.043-72.532,30.043s-53.159-10.669-72.532-30.043
	c-39.995-39.995-39.995-105.07,0-145.065l137.044-137.044c19.374-19.374,45.133-30.043,72.532-30.043s53.158,10.67,72.532,30.043
	c11.302,11.302,19.811,25.112,24.812,40.163l-64.857,64.857c-8.727,8.727-20.33,13.533-32.671,13.533
	c-12.342,0-23.945-4.806-32.672-13.533c-4.402-4.402-7.809-9.538-10.128-15.266c-1.693-4.184-6.457-6.202-10.641-4.509
	c-4.184,1.693-6.202,6.458-4.509,10.641c3.146,7.77,7.762,14.731,13.721,20.69c11.815,11.813,27.522,18.32,44.229,18.32
	s32.414-6.506,44.228-18.32l68.199-68.198c0.053-0.051,0.105-0.105,0.157-0.157l68.688-68.688
	c11.814-11.813,18.32-27.521,18.32-44.228s-6.506-32.414-18.32-44.228c-11.813-11.813-27.52-18.319-44.228-18.319
	c-16.707,0-32.414,6.506-44.228,18.319l-43.271,43.271c-3.191,3.191-3.191,8.366,0,11.556c3.191,3.191,8.366,3.191,11.557,0
	l43.271-43.271c8.727-8.727,20.33-13.533,32.671-13.533c12.342,0,23.945,4.806,32.671,13.532
	c8.727,8.728,13.533,20.33,13.533,32.672s-4.806,23.944-13.533,32.672l-59.48,59.48c-5.956-14.518-14.778-27.828-25.963-39.013
	c-46.367-46.368-121.812-46.368-168.178,0L34.959,309.047c-46.367,46.367-46.367,121.811,0,168.178
	C58.142,500.409,88.595,512,119.047,512c30.453,0,60.906-11.591,84.09-34.775l72.796-72.796c3.191-3.191,3.191-8.366,0-11.556
	C272.742,389.68,267.567,389.68,264.376,392.872z"/>
<path d="M477.041,34.775c-46.367-46.368-121.813-46.367-168.178,0l-72.886,72.888c-3.191,3.191-3.191,8.366,0,11.556
	c3.191,3.191,8.366,3.191,11.556,0l72.888-72.888c39.996-39.995,105.071-39.995,145.065,0c39.995,39.995,39.995,105.07,0,145.065
	L328.441,328.441c-19.374,19.374-45.133,30.043-72.532,30.043s-53.158-10.67-72.532-30.043
	c-11.305-11.305-19.81-25.111-24.812-40.164l64.856-64.856c8.727-8.727,20.33-13.533,32.671-13.533
	c12.341,0,23.944,4.806,32.672,13.533c4.403,4.402,7.81,9.537,10.129,15.265c1.693,4.184,6.459,6.201,10.641,4.509
	c4.184-1.693,6.202-6.458,4.509-10.641c-3.146-7.77-7.762-14.731-13.722-20.69c-11.815-11.813-27.521-18.32-44.228-18.32
	s-32.414,6.506-44.228,18.32L74.821,348.908C63.006,360.721,56.5,376.429,56.5,393.136s6.506,32.414,18.321,44.228
	c11.813,11.813,27.52,18.319,44.227,18.319c16.708,0,32.414-6.506,44.228-18.32l43.208-43.208c3.191-3.191,3.191-8.366,0-11.556
	c-3.191-3.191-8.366-3.191-11.557,0l-43.208,43.208c-8.727,8.727-20.33,13.533-32.672,13.533s-23.944-4.806-32.671-13.532
	c-8.727-8.728-13.533-20.33-13.533-32.672c0-12.342,4.806-23.944,13.533-32.672l59.479-59.479
	c5.956,14.518,14.776,27.825,25.963,39.013c22.461,22.461,52.325,34.831,84.089,34.831c31.765,0,61.629-12.37,84.089-34.831
	l137.044-137.044C523.408,156.586,523.408,81.142,477.041,34.775z"/>
<g>
</g>
<g>
</g>
<g>
</g>
<g>
</g>
<g>
</g>
<g>
</g>
<g>
</g>
<g>
</g>
<g>
</g>
<g>
</g>
<g>
</g>
<g>
</g>
<g>
</g>
<g>
</g>
<g>
</g>
</svg>
