<svg width="710" height="180" xmlns="http://www.w3.org/2000/svg" xml:space="preserve" version="1.1">

 <g>
  <title>Layer 1</title>
  <g stroke="null" id="svg_1">
   <g stroke="null" id="svg_2">
    <rect stroke="null" id="svg_3" fill="#010002" height="23.84742" width="23.84742" y="31.07764" x="29.07764"/>
    <rect stroke="null" id="svg_4" fill="#010002" height="23.84742" width="23.84742" y="123.74194" x="29.07764"/>
    <path stroke="null" id="svg_5" fill="#010002" d="m10,94.10303l0,10.56077l0,6.81369l0,55.1895l62.00319,0l0,-33.38649l14.30835,0l0,15.33056l0,1.0222l0,16.35226l17.37446,0l0,-14.30835l13.62688,0l0,14.30835l17.37446,0l0,-16.35226l12.60518,0l0,16.35226l17.37446,0l0,-17.37446l-16.35226,0l0,-16.35226l-17.37446,0l0,16.35226l-11.41411,0l0,-33.72672l-15.84016,0l0,-14.30835l16.35226,0l0,16.35226l17.37446,0l0,-10.90151l9.8798,0l0,7.15443l0,9.19833l0,8.17613l17.37446,0l0,-8.17613l0,-9.19833l0,-8.17613l-10.90151,0l0,-15.33056l10.90151,0l0,-15.67129l0,-1.70317l0,-60.30002l-62.00319,0l0,0.11425l-16.35226,0l0,18.96339l-14.30835,0l0,-19.07764l-62.00319,0l0,54.84877l0,7.15443l0,10.22004l10.90151,0l0,9.8798l-10.90151,0zm51.10119,61.66246l-40.19968,0l0,-40.19968l40.19968,0l0,40.19968zm26.23206,-38.83724l14.82096,0l0,15.33056l-14.82096,0l0,-15.33056zm0,-32.70502l13.79625,0l0,15.33056l-13.79625,0l0,-15.33056zm59.95929,4.42905l-9.3702,0l0,-5.45075l-34.23682,0l0,-9.19833l43.60653,0l0,14.64909l0.0005,0zm-33.72722,-65.75077l40.19968,0l0,40.19968l-40.19968,0l0,-40.19968zm-10.90151,43.94726l-15.33056,0l0,-33.95321l15.33056,0l0,33.95321zm-16.35226,16.35276l-14.26476,0l0,-15.33056l14.26476,0l0,15.33056zm-65.41004,-60.30002l40.19968,0l0,40.19968l-40.19968,0l0,-40.19968zm33.77082,51.10169l0,10.22004l15.28696,0l0,16.35226l16.35226,0l0,15.33056l-14.30835,0l0,-11.24224l-44.62873,0l0,-4.08832l9.8798,0l1.0222,0l16.35226,0l0,-17.37446l-16.35276,0l-1.0222,0l-9.8793,0l0,-9.19833l27.29786,0l0,0.0005z"/>
    <rect stroke="null" id="svg_6" fill="#010002" height="23.84742" width="23.84742" y="31.07764" x="121.74194"/>
   </g>
  </g>
  <g id="svg_7"/>
  <g id="svg_8"/>
  <g id="svg_9"/>
  <g id="svg_10"/>
  <g id="svg_11"/>
  <g id="svg_12"/>
  <g id="svg_13"/>
  <g id="svg_14"/>
  <g id="svg_15"/>
  <g id="svg_16"/>
  <g id="svg_17"/>
  <g id="svg_18"/>
  <g id="svg_19"/>
  <g id="svg_20"/>
  <g id="svg_21"/>
  <text style="cursor: move;" font-weight="normal" transform="matrix(0.595604 0 0 0.595604 66.7253 -13.6168)" stroke="#000" xml:space="preserve" text-anchor="start" font-family="'Maven Pro'" font-size="200" id="svg_22" y="244.4977" x="186.82657" stroke-width="0" fill="#000000">ScanApp</text>
 </g>
</svg>