<?xml version="1.0" encoding="iso-8859-1"?>
<!-- Generator: Adobe Illustrator 19.0.0, SVG Export Plug-In . SVG Version: 6.00 Build 0)  -->
<svg version="1.1" id="Layer_1" xmlns="http://www.w3.org/2000/svg" xmlns:xlink="http://www.w3.org/1999/xlink" x="0px" y="0px"
	 viewBox="0 0 460 460" style="enable-background:new 0 0 460 460;" xml:space="preserve">
<g id="XMLID_24_">
	<g>
		<g>
			<path d="M195.24,180.612c0,11.666,6.179,16.635,16.665,21.222v-43.535C200.794,161.82,195.24,169.259,195.24,180.612z"/>
			<path d="M248.904,258.229v44.841c14.503-2.611,21.758-9.804,21.758-21.584C270.662,268.866,261.687,263.543,248.904,258.229z"/>
			<path d="M230,0C102.974,0,0,102.975,0,230s102.974,230,230,230s230-102.974,230-230S357.026,0,230,0z M248.904,341.713v27.302
				c0,4.477-3.629,8.106-8.106,8.106H220.01c-4.477,0-8.106-3.629-8.106-8.106v-28.046c-23.139-3.109-45.228-11.269-63.539-22.768
				c-3.557-2.233-4.823-6.817-2.907-10.554l11.126-21.705c1.056-2.06,2.943-3.57,5.184-4.15c2.241-0.58,4.622-0.171,6.546,1.116
				c12.413,8.308,31.719,15.626,43.589,18.41v-54.75c-35.288-9.913-60.74-22.786-60.74-59.129c0-33.995,20.95-60.241,60.74-67.287
				V93.227c0-4.477,3.629-8.106,8.106-8.106h20.789c4.477,0,8.106,3.629,8.106,8.106v26.2c17.388,2.326,34.554,8.515,49.345,16.888
				c5.844,3.308,7.958,10.692,4.746,16.589l-8.908,16.355c-1.063,1.952-2.881,3.381-5.028,3.954
				c-2.147,0.573-4.435,0.238-6.33-0.923c-8.378-5.132-22.099-11.254-33.826-13.996v54.597
				c38.996,10.88,67.384,23.201,67.384,64.249C316.288,317.272,289.503,337.524,248.904,341.713z"/>
		</g>
	</g>
</g>
<g>
</g>
<g>
</g>
<g>
</g>
<g>
</g>
<g>
</g>
<g>
</g>
<g>
</g>
<g>
</g>
<g>
</g>
<g>
</g>
<g>
</g>
<g>
</g>
<g>
</g>
<g>
</g>
<g>
</g>
</svg>
