<svg width="300" height="300" xmlns="http://www.w3.org/2000/svg" version="1.1">
 <g transform="matrix(0.853424, 0, 0, 0.853424, 8.818192, -21.901226)">
  <title>Layer 1</title>
  <g transform="matrix(1 0 0 1 -23.8047 -43.4357)" id="svg_7"/>
  <g transform="matrix(1 0 0 1 -23.8047 -43.4357)" id="svg_8"/>
  <g transform="matrix(1 0 0 1 -23.8047 -43.4357)" id="svg_9"/>
  <g transform="matrix(1 0 0 1 -23.8047 -43.4357)" id="svg_10"/>
  <g transform="matrix(1 0 0 1 -23.8047 -43.4357)" id="svg_11"/>
  <g transform="matrix(1 0 0 1 -23.8047 -43.4357)" id="svg_12"/>
  <g transform="matrix(1 0 0 1 -23.8047 -43.4357)" id="svg_13"/>
  <g transform="matrix(1 0 0 1 -23.8047 -43.4357)" id="svg_14"/>
  <g transform="matrix(1 0 0 1 -23.8047 -43.4357)" id="svg_15"/>
  <g transform="matrix(1 0 0 1 -23.8047 -43.4357)" id="svg_16"/>
  <g transform="matrix(1 0 0 1 -23.8047 -43.4357)" id="svg_17"/>
  <g transform="matrix(1 0 0 1 -23.8047 -43.4357)" id="svg_18"/>
  <g transform="matrix(1 0 0 1 -23.8047 -43.4357)" id="svg_19"/>
  <g transform="matrix(1 0 0 1 -23.8047 -43.4357)" id="svg_20"/>
  <g transform="matrix(1 0 0 1 -23.8047 -43.4357)" id="svg_21"/>
  <rect id="svg_1" fill="black" height="7" width="7" y="151.93254" x="79.68474" shape-rendering="optimizeSpeed"/>
  <rect id="svg_2" fill="black" height="7" width="7" y="151.93254" x="86.68474" shape-rendering="optimizeSpeed"/>
  <rect id="svg_3" fill="black" height="7" width="7" y="151.93254" x="93.68474" shape-rendering="optimizeSpeed"/>
  <rect id="svg_4" fill="black" height="7" width="7" y="151.93254" x="100.68474" shape-rendering="optimizeSpeed"/>
  <rect id="svg_5" fill="black" height="7" width="7" y="151.93254" x="107.68474" shape-rendering="optimizeSpeed"/>
  <rect id="svg_6" fill="black" height="7" width="7" y="151.93254" x="114.68474" shape-rendering="optimizeSpeed"/>
  <rect id="svg_23" fill="black" height="7" width="7" y="151.93254" x="121.68474" shape-rendering="optimizeSpeed"/>
  <rect id="svg_24" fill="black" height="7" width="7" y="151.93254" x="135.68474" shape-rendering="optimizeSpeed"/>
  <rect id="svg_25" fill="black" height="7" width="7" y="151.93254" x="156.68474" shape-rendering="optimizeSpeed"/>
  <rect id="svg_26" fill="black" height="7" width="7" y="151.93254" x="163.68474" shape-rendering="optimizeSpeed"/>
  <rect id="svg_27" fill="black" height="7" width="7" y="151.93254" x="170.68474" shape-rendering="optimizeSpeed"/>
  <rect id="svg_28" fill="black" height="7" width="7" y="151.93254" x="205.68474" shape-rendering="optimizeSpeed"/>
  <rect id="svg_29" fill="black" height="7" width="7" y="151.93254" x="212.68474" shape-rendering="optimizeSpeed"/>
  <rect id="svg_30" fill="black" height="7" width="7" y="151.93254" x="219.68474" shape-rendering="optimizeSpeed"/>
  <rect id="svg_31" fill="black" height="7" width="7" y="151.93254" x="226.68474" shape-rendering="optimizeSpeed"/>
  <rect id="svg_32" fill="black" height="7" width="7" y="151.93254" x="233.68474" shape-rendering="optimizeSpeed"/>
  <rect id="svg_33" fill="black" height="7" width="7" y="151.93254" x="240.68474" shape-rendering="optimizeSpeed"/>
  <rect id="svg_34" fill="black" height="7" width="7" y="151.93254" x="247.68474" shape-rendering="optimizeSpeed"/>
  <rect id="svg_35" fill="black" height="7" width="7" y="158.93254" x="79.68474" shape-rendering="optimizeSpeed"/>
  <rect id="svg_36" fill="black" height="7" width="7" y="158.93254" x="121.68474" shape-rendering="optimizeSpeed"/>
  <rect id="svg_37" fill="black" height="7" width="7" y="158.93254" x="142.68474" shape-rendering="optimizeSpeed"/>
  <rect id="svg_38" fill="black" height="7" width="7" y="158.93254" x="149.68474" shape-rendering="optimizeSpeed"/>
  <rect id="svg_39" fill="black" height="7" width="7" y="158.93254" x="177.68474" shape-rendering="optimizeSpeed"/>
  <rect id="svg_40" fill="black" height="7" width="7" y="158.93254" x="191.68474" shape-rendering="optimizeSpeed"/>
  <rect id="svg_41" fill="black" height="7" width="7" y="158.93254" x="205.68474" shape-rendering="optimizeSpeed"/>
  <rect id="svg_42" fill="black" height="7" width="7" y="158.93254" x="247.68474" shape-rendering="optimizeSpeed"/>
  <rect id="svg_43" fill="black" height="7" width="7" y="165.93254" x="79.68474" shape-rendering="optimizeSpeed"/>
  <rect id="svg_44" fill="black" height="7" width="7" y="165.93254" x="93.68474" shape-rendering="optimizeSpeed"/>
  <rect id="svg_45" fill="black" height="7" width="7" y="165.93254" x="100.68474" shape-rendering="optimizeSpeed"/>
  <rect id="svg_46" fill="black" height="7" width="7" y="165.93254" x="107.68474" shape-rendering="optimizeSpeed"/>
  <rect id="svg_47" fill="black" height="7" width="7" y="165.93254" x="121.68474" shape-rendering="optimizeSpeed"/>
  <rect id="svg_48" fill="black" height="7" width="7" y="165.93254" x="149.68474" shape-rendering="optimizeSpeed"/>
  <rect id="svg_49" fill="black" height="7" width="7" y="165.93254" x="163.68474" shape-rendering="optimizeSpeed"/>
  <rect id="svg_50" fill="black" height="7" width="7" y="165.93254" x="170.68474" shape-rendering="optimizeSpeed"/>
  <rect id="svg_51" fill="black" height="7" width="7" y="165.93254" x="205.68474" shape-rendering="optimizeSpeed"/>
  <rect id="svg_52" fill="black" height="7" width="7" y="165.93254" x="219.68474" shape-rendering="optimizeSpeed"/>
  <rect id="svg_53" fill="black" height="7" width="7" y="165.93254" x="226.68474" shape-rendering="optimizeSpeed"/>
  <rect id="svg_54" fill="black" height="7" width="7" y="165.93254" x="233.68474" shape-rendering="optimizeSpeed"/>
  <rect id="svg_55" fill="black" height="7" width="7" y="165.93254" x="247.68474" shape-rendering="optimizeSpeed"/>
  <rect id="svg_56" fill="black" height="7" width="7" y="172.93254" x="79.68474" shape-rendering="optimizeSpeed"/>
  <rect id="svg_57" fill="black" height="7" width="7" y="172.93254" x="93.68474" shape-rendering="optimizeSpeed"/>
  <rect id="svg_58" fill="black" height="7" width="7" y="172.93254" x="100.68474" shape-rendering="optimizeSpeed"/>
  <rect id="svg_59" fill="black" height="7" width="7" y="172.93254" x="107.68474" shape-rendering="optimizeSpeed"/>
  <rect id="svg_60" fill="black" height="7" width="7" y="172.93254" x="121.68474" shape-rendering="optimizeSpeed"/>
  <rect id="svg_61" fill="black" height="7" width="7" y="172.93254" x="163.68474" shape-rendering="optimizeSpeed"/>
  <rect id="svg_62" fill="black" height="7" width="7" y="172.93254" x="170.68474" shape-rendering="optimizeSpeed"/>
  <rect id="svg_63" fill="black" height="7" width="7" y="172.93254" x="184.68474" shape-rendering="optimizeSpeed"/>
  <rect id="svg_64" fill="black" height="7" width="7" y="172.93254" x="191.68474" shape-rendering="optimizeSpeed"/>
  <rect id="svg_65" fill="black" height="7" width="7" y="172.93254" x="205.68474" shape-rendering="optimizeSpeed"/>
  <rect id="svg_66" fill="black" height="7" width="7" y="172.93254" x="219.68474" shape-rendering="optimizeSpeed"/>
  <rect id="svg_67" fill="black" height="7" width="7" y="172.93254" x="226.68474" shape-rendering="optimizeSpeed"/>
  <rect id="svg_68" fill="black" height="7" width="7" y="172.93254" x="233.68474" shape-rendering="optimizeSpeed"/>
  <rect id="svg_69" fill="black" height="7" width="7" y="172.93254" x="247.68474" shape-rendering="optimizeSpeed"/>
  <rect id="svg_70" fill="black" height="7" width="7" y="179.93254" x="79.68474" shape-rendering="optimizeSpeed"/>
  <rect id="svg_71" fill="black" height="7" width="7" y="179.93254" x="93.68474" shape-rendering="optimizeSpeed"/>
  <rect id="svg_72" fill="black" height="7" width="7" y="179.93254" x="100.68474" shape-rendering="optimizeSpeed"/>
  <rect id="svg_73" fill="black" height="7" width="7" y="179.93254" x="107.68474" shape-rendering="optimizeSpeed"/>
  <rect id="svg_74" fill="black" height="7" width="7" y="179.93254" x="121.68474" shape-rendering="optimizeSpeed"/>
  <rect id="svg_75" fill="black" height="7" width="7" y="179.93254" x="142.68474" shape-rendering="optimizeSpeed"/>
  <rect id="svg_76" fill="black" height="7" width="7" y="179.93254" x="156.68474" shape-rendering="optimizeSpeed"/>
  <rect id="svg_77" fill="black" height="7" width="7" y="179.93254" x="177.68474" shape-rendering="optimizeSpeed"/>
  <rect id="svg_78" fill="black" height="7" width="7" y="179.93254" x="191.68474" shape-rendering="optimizeSpeed"/>
  <rect id="svg_79" fill="black" height="7" width="7" y="179.93254" x="205.68474" shape-rendering="optimizeSpeed"/>
  <rect id="svg_80" fill="black" height="7" width="7" y="179.93254" x="219.68474" shape-rendering="optimizeSpeed"/>
  <rect id="svg_81" fill="black" height="7" width="7" y="179.93254" x="226.68474" shape-rendering="optimizeSpeed"/>
  <rect id="svg_82" fill="black" height="7" width="7" y="179.93254" x="233.68474" shape-rendering="optimizeSpeed"/>
  <rect id="svg_83" fill="black" height="7" width="7" y="179.93254" x="247.68474" shape-rendering="optimizeSpeed"/>
  <rect id="svg_84" fill="black" height="7" width="7" y="186.93254" x="79.68474" shape-rendering="optimizeSpeed"/>
  <rect id="svg_85" fill="black" height="7" width="7" y="186.93254" x="121.68474" shape-rendering="optimizeSpeed"/>
  <rect id="svg_86" fill="black" height="7" width="7" y="186.93254" x="149.68474" shape-rendering="optimizeSpeed"/>
  <rect id="svg_87" fill="black" height="7" width="7" y="186.93254" x="163.68474" shape-rendering="optimizeSpeed"/>
  <rect id="svg_88" fill="black" height="7" width="7" y="186.93254" x="170.68474" shape-rendering="optimizeSpeed"/>
  <rect id="svg_89" fill="black" height="7" width="7" y="186.93254" x="177.68474" shape-rendering="optimizeSpeed"/>
  <rect id="svg_90" fill="black" height="7" width="7" y="186.93254" x="191.68474" shape-rendering="optimizeSpeed"/>
  <rect id="svg_91" fill="black" height="7" width="7" y="186.93254" x="205.68474" shape-rendering="optimizeSpeed"/>
  <rect id="svg_92" fill="black" height="7" width="7" y="186.93254" x="247.68474" shape-rendering="optimizeSpeed"/>
  <rect id="svg_93" fill="black" height="7" width="7" y="193.93254" x="79.68474" shape-rendering="optimizeSpeed"/>
  <rect id="svg_94" fill="black" height="7" width="7" y="193.93254" x="86.68474" shape-rendering="optimizeSpeed"/>
  <rect id="svg_95" fill="black" height="7" width="7" y="193.93254" x="93.68474" shape-rendering="optimizeSpeed"/>
  <rect id="svg_96" fill="black" height="7" width="7" y="193.93254" x="100.68474" shape-rendering="optimizeSpeed"/>
  <rect id="svg_97" fill="black" height="7" width="7" y="193.93254" x="107.68474" shape-rendering="optimizeSpeed"/>
  <rect id="svg_98" fill="black" height="7" width="7" y="193.93254" x="114.68474" shape-rendering="optimizeSpeed"/>
  <rect id="svg_99" fill="black" height="7" width="7" y="193.93254" x="121.68474" shape-rendering="optimizeSpeed"/>
  <rect id="svg_100" fill="black" height="7" width="7" y="193.93254" x="135.68474" shape-rendering="optimizeSpeed"/>
  <rect id="svg_101" fill="black" height="7" width="7" y="193.93254" x="149.68474" shape-rendering="optimizeSpeed"/>
  <rect id="svg_102" fill="black" height="7" width="7" y="193.93254" x="163.68474" shape-rendering="optimizeSpeed"/>
  <rect id="svg_103" fill="black" height="7" width="7" y="193.93254" x="177.68474" shape-rendering="optimizeSpeed"/>
  <rect id="svg_104" fill="black" height="7" width="7" y="193.93254" x="191.68474" shape-rendering="optimizeSpeed"/>
  <rect id="svg_105" fill="black" height="7" width="7" y="193.93254" x="205.68474" shape-rendering="optimizeSpeed"/>
  <rect id="svg_106" fill="black" height="7" width="7" y="193.93254" x="212.68474" shape-rendering="optimizeSpeed"/>
  <rect id="svg_107" fill="black" height="7" width="7" y="193.93254" x="219.68474" shape-rendering="optimizeSpeed"/>
  <rect id="svg_108" fill="black" height="7" width="7" y="193.93254" x="226.68474" shape-rendering="optimizeSpeed"/>
  <rect id="svg_109" fill="black" height="7" width="7" y="193.93254" x="233.68474" shape-rendering="optimizeSpeed"/>
  <rect id="svg_110" fill="black" height="7" width="7" y="193.93254" x="240.68474" shape-rendering="optimizeSpeed"/>
  <rect id="svg_111" fill="black" height="7" width="7" y="193.93254" x="247.68474" shape-rendering="optimizeSpeed"/>
  <rect id="svg_112" fill="black" height="7" width="7" y="200.93254" x="135.68474" shape-rendering="optimizeSpeed"/>
  <rect id="svg_113" fill="black" height="7" width="7" y="200.93254" x="149.68474" shape-rendering="optimizeSpeed"/>
  <rect id="svg_114" fill="black" height="7" width="7" y="200.93254" x="156.68474" shape-rendering="optimizeSpeed"/>
  <rect id="svg_115" fill="black" height="7" width="7" y="200.93254" x="170.68474" shape-rendering="optimizeSpeed"/>
  <rect id="svg_116" fill="black" height="7" width="7" y="200.93254" x="184.68474" shape-rendering="optimizeSpeed"/>
  <rect id="svg_117" fill="black" height="7" width="7" y="200.93254" x="191.68474" shape-rendering="optimizeSpeed"/>
  <rect id="svg_118" fill="black" height="7" width="7" y="207.93254" x="79.68474" shape-rendering="optimizeSpeed"/>
  <rect id="svg_119" fill="black" height="7" width="7" y="207.93254" x="86.68474" shape-rendering="optimizeSpeed"/>
  <rect id="svg_120" fill="black" height="7" width="7" y="207.93254" x="100.68474" shape-rendering="optimizeSpeed"/>
  <rect id="svg_121" fill="black" height="7" width="7" y="207.93254" x="107.68474" shape-rendering="optimizeSpeed"/>
  <rect id="svg_122" fill="black" height="7" width="7" y="207.93254" x="121.68474" shape-rendering="optimizeSpeed"/>
  <rect id="svg_123" fill="black" height="7" width="7" y="207.93254" x="142.68474" shape-rendering="optimizeSpeed"/>
  <rect id="svg_124" fill="black" height="7" width="7" y="207.93254" x="149.68474" shape-rendering="optimizeSpeed"/>
  <rect id="svg_125" fill="black" height="7" width="7" y="207.93254" x="156.68474" shape-rendering="optimizeSpeed"/>
  <rect id="svg_126" fill="black" height="7" width="7" y="207.93254" x="170.68474" shape-rendering="optimizeSpeed"/>
  <rect id="svg_127" fill="black" height="7" width="7" y="207.93254" x="191.68474" shape-rendering="optimizeSpeed"/>
  <rect id="svg_128" fill="black" height="7" width="7" y="207.93254" x="205.68474" shape-rendering="optimizeSpeed"/>
  <rect id="svg_129" fill="black" height="7" width="7" y="207.93254" x="247.68474" shape-rendering="optimizeSpeed"/>
  <rect id="svg_130" fill="black" height="7" width="7" y="214.93254" x="79.68474" shape-rendering="optimizeSpeed"/>
  <rect id="svg_131" fill="black" height="7" width="7" y="214.93254" x="100.68474" shape-rendering="optimizeSpeed"/>
  <rect id="svg_132" fill="black" height="7" width="7" y="214.93254" x="107.68474" shape-rendering="optimizeSpeed"/>
  <rect id="svg_133" fill="black" height="7" width="7" y="214.93254" x="114.68474" shape-rendering="optimizeSpeed"/>
  <rect id="svg_134" fill="black" height="7" width="7" y="214.93254" x="128.68474" shape-rendering="optimizeSpeed"/>
  <rect id="svg_135" fill="black" height="7" width="7" y="214.93254" x="142.68474" shape-rendering="optimizeSpeed"/>
  <rect id="svg_136" fill="black" height="7" width="7" y="214.93254" x="163.68474" shape-rendering="optimizeSpeed"/>
  <rect id="svg_137" fill="black" height="7" width="7" y="214.93254" x="170.68474" shape-rendering="optimizeSpeed"/>
  <rect id="svg_138" fill="black" height="7" width="7" y="214.93254" x="177.68474" shape-rendering="optimizeSpeed"/>
  <rect id="svg_139" fill="black" height="7" width="7" y="214.93254" x="184.68474" shape-rendering="optimizeSpeed"/>
  <rect id="svg_140" fill="black" height="7" width="7" y="214.93254" x="191.68474" shape-rendering="optimizeSpeed"/>
  <rect id="svg_141" fill="black" height="7" width="7" y="214.93254" x="212.68474" shape-rendering="optimizeSpeed"/>
  <rect id="svg_142" fill="black" height="7" width="7" y="214.93254" x="219.68474" shape-rendering="optimizeSpeed"/>
  <rect id="svg_143" fill="black" height="7" width="7" y="214.93254" x="226.68474" shape-rendering="optimizeSpeed"/>
  <rect id="svg_144" fill="black" height="7" width="7" y="214.93254" x="233.68474" shape-rendering="optimizeSpeed"/>
  <rect id="svg_145" fill="black" height="7" width="7" y="214.93254" x="240.68474" shape-rendering="optimizeSpeed"/>
  <rect id="svg_146" fill="black" height="7" width="7" y="221.93254" x="79.68474" shape-rendering="optimizeSpeed"/>
  <rect id="svg_147" fill="black" height="7" width="7" y="221.93254" x="93.68474" shape-rendering="optimizeSpeed"/>
  <rect id="svg_148" fill="black" height="7" width="7" y="221.93254" x="100.68474" shape-rendering="optimizeSpeed"/>
  <rect id="svg_149" fill="black" height="7" width="7" y="221.93254" x="107.68474" shape-rendering="optimizeSpeed"/>
  <rect id="svg_150" fill="black" height="7" width="7" y="221.93254" x="121.68474" shape-rendering="optimizeSpeed"/>
  <rect id="svg_151" fill="black" height="7" width="7" y="221.93254" x="149.68474" shape-rendering="optimizeSpeed"/>
  <rect id="svg_152" fill="black" height="7" width="7" y="221.93254" x="156.68474" shape-rendering="optimizeSpeed"/>
  <rect id="svg_153" fill="black" height="7" width="7" y="221.93254" x="170.68474" shape-rendering="optimizeSpeed"/>
  <rect id="svg_154" fill="black" height="7" width="7" y="221.93254" x="184.68474" shape-rendering="optimizeSpeed"/>
  <rect id="svg_155" fill="black" height="7" width="7" y="221.93254" x="198.68474" shape-rendering="optimizeSpeed"/>
  <rect id="svg_156" fill="black" height="7" width="7" y="221.93254" x="205.68474" shape-rendering="optimizeSpeed"/>
  <rect id="svg_157" fill="black" height="7" width="7" y="221.93254" x="212.68474" shape-rendering="optimizeSpeed"/>
  <rect id="svg_158" fill="black" height="7" width="7" y="221.93254" x="226.68474" shape-rendering="optimizeSpeed"/>
  <rect id="svg_159" fill="black" height="7" width="7" y="221.93254" x="247.68474" shape-rendering="optimizeSpeed"/>
  <rect id="svg_160" fill="black" height="7" width="7" y="228.93254" x="86.68474" shape-rendering="optimizeSpeed"/>
  <rect id="svg_161" fill="black" height="7" width="7" y="228.93254" x="93.68474" shape-rendering="optimizeSpeed"/>
  <rect id="svg_162" fill="black" height="7" width="7" y="228.93254" x="114.68474" shape-rendering="optimizeSpeed"/>
  <rect id="svg_163" fill="black" height="7" width="7" y="228.93254" x="128.68474" shape-rendering="optimizeSpeed"/>
  <rect id="svg_164" fill="black" height="7" width="7" y="228.93254" x="142.68474" shape-rendering="optimizeSpeed"/>
  <rect id="svg_165" fill="black" height="7" width="7" y="228.93254" x="149.68474" shape-rendering="optimizeSpeed"/>
  <rect id="svg_166" fill="black" height="7" width="7" y="228.93254" x="156.68474" shape-rendering="optimizeSpeed"/>
  <rect id="svg_167" fill="black" height="7" width="7" y="228.93254" x="163.68474" shape-rendering="optimizeSpeed"/>
  <rect id="svg_168" fill="black" height="7" width="7" y="228.93254" x="170.68474" shape-rendering="optimizeSpeed"/>
  <rect id="svg_169" fill="black" height="7" width="7" y="228.93254" x="191.68474" shape-rendering="optimizeSpeed"/>
  <rect id="svg_170" fill="black" height="7" width="7" y="228.93254" x="226.68474" shape-rendering="optimizeSpeed"/>
  <rect id="svg_171" fill="black" height="7" width="7" y="228.93254" x="233.68474" shape-rendering="optimizeSpeed"/>
  <rect id="svg_172" fill="black" height="7" width="7" y="228.93254" x="240.68474" shape-rendering="optimizeSpeed"/>
  <rect id="svg_173" fill="black" height="7" width="7" y="228.93254" x="247.68474" shape-rendering="optimizeSpeed"/>
  <rect id="svg_174" fill="black" height="7" width="7" y="235.93254" x="79.68474" shape-rendering="optimizeSpeed"/>
  <rect id="svg_175" fill="black" height="7" width="7" y="235.93254" x="93.68474" shape-rendering="optimizeSpeed"/>
  <rect id="svg_176" fill="black" height="7" width="7" y="235.93254" x="107.68474" shape-rendering="optimizeSpeed"/>
  <rect id="svg_177" fill="black" height="7" width="7" y="235.93254" x="121.68474" shape-rendering="optimizeSpeed"/>
  <rect id="svg_178" fill="black" height="7" width="7" y="235.93254" x="135.68474" shape-rendering="optimizeSpeed"/>
  <rect id="svg_179" fill="black" height="7" width="7" y="235.93254" x="142.68474" shape-rendering="optimizeSpeed"/>
  <rect id="svg_180" fill="black" height="7" width="7" y="235.93254" x="156.68474" shape-rendering="optimizeSpeed"/>
  <rect id="svg_181" fill="black" height="7" width="7" y="235.93254" x="163.68474" shape-rendering="optimizeSpeed"/>
  <rect id="svg_182" fill="black" height="7" width="7" y="235.93254" x="170.68474" shape-rendering="optimizeSpeed"/>
  <rect id="svg_183" fill="black" height="7" width="7" y="235.93254" x="184.68474" shape-rendering="optimizeSpeed"/>
  <rect id="svg_184" fill="black" height="7" width="7" y="235.93254" x="205.68474" shape-rendering="optimizeSpeed"/>
  <rect id="svg_185" fill="black" height="7" width="7" y="235.93254" x="247.68474" shape-rendering="optimizeSpeed"/>
  <rect id="svg_186" fill="black" height="7" width="7" y="242.93254" x="79.68474" shape-rendering="optimizeSpeed"/>
  <rect id="svg_187" fill="black" height="7" width="7" y="242.93254" x="93.68474" shape-rendering="optimizeSpeed"/>
  <rect id="svg_188" fill="black" height="7" width="7" y="242.93254" x="107.68474" shape-rendering="optimizeSpeed"/>
  <rect id="svg_189" fill="black" height="7" width="7" y="242.93254" x="128.68474" shape-rendering="optimizeSpeed"/>
  <rect id="svg_190" fill="black" height="7" width="7" y="242.93254" x="135.68474" shape-rendering="optimizeSpeed"/>
  <rect id="svg_191" fill="black" height="7" width="7" y="242.93254" x="170.68474" shape-rendering="optimizeSpeed"/>
  <rect id="svg_192" fill="black" height="7" width="7" y="242.93254" x="177.68474" shape-rendering="optimizeSpeed"/>
  <rect id="svg_193" fill="black" height="7" width="7" y="242.93254" x="184.68474" shape-rendering="optimizeSpeed"/>
  <rect id="svg_194" fill="black" height="7" width="7" y="242.93254" x="191.68474" shape-rendering="optimizeSpeed"/>
  <rect id="svg_195" fill="black" height="7" width="7" y="242.93254" x="219.68474" shape-rendering="optimizeSpeed"/>
  <rect id="svg_196" fill="black" height="7" width="7" y="242.93254" x="240.68474" shape-rendering="optimizeSpeed"/>
  <rect id="svg_197" fill="black" height="7" width="7" y="249.93254" x="79.68474" shape-rendering="optimizeSpeed"/>
  <rect id="svg_198" fill="black" height="7" width="7" y="249.93254" x="86.68474" shape-rendering="optimizeSpeed"/>
  <rect id="svg_199" fill="black" height="7" width="7" y="249.93254" x="93.68474" shape-rendering="optimizeSpeed"/>
  <rect id="svg_200" fill="black" height="7" width="7" y="249.93254" x="100.68474" shape-rendering="optimizeSpeed"/>
  <rect id="svg_201" fill="black" height="7" width="7" y="249.93254" x="107.68474" shape-rendering="optimizeSpeed"/>
  <rect id="svg_202" fill="black" height="7" width="7" y="249.93254" x="114.68474" shape-rendering="optimizeSpeed"/>
  <rect id="svg_203" fill="black" height="7" width="7" y="249.93254" x="121.68474" shape-rendering="optimizeSpeed"/>
  <rect id="svg_204" fill="black" height="7" width="7" y="249.93254" x="135.68474" shape-rendering="optimizeSpeed"/>
  <rect id="svg_205" fill="black" height="7" width="7" y="249.93254" x="149.68474" shape-rendering="optimizeSpeed"/>
  <rect id="svg_206" fill="black" height="7" width="7" y="249.93254" x="156.68474" shape-rendering="optimizeSpeed"/>
  <rect id="svg_207" fill="black" height="7" width="7" y="249.93254" x="163.68474" shape-rendering="optimizeSpeed"/>
  <rect id="svg_208" fill="black" height="7" width="7" y="249.93254" x="170.68474" shape-rendering="optimizeSpeed"/>
  <rect id="svg_209" fill="black" height="7" width="7" y="249.93254" x="184.68474" shape-rendering="optimizeSpeed"/>
  <rect id="svg_210" fill="black" height="7" width="7" y="249.93254" x="191.68474" shape-rendering="optimizeSpeed"/>
  <rect id="svg_211" fill="black" height="7" width="7" y="249.93254" x="205.68474" shape-rendering="optimizeSpeed"/>
  <rect id="svg_212" fill="black" height="7" width="7" y="249.93254" x="219.68474" shape-rendering="optimizeSpeed"/>
  <rect id="svg_213" fill="black" height="7" width="7" y="249.93254" x="226.68474" shape-rendering="optimizeSpeed"/>
  <rect id="svg_214" fill="black" height="7" width="7" y="249.93254" x="233.68474" shape-rendering="optimizeSpeed"/>
  <rect id="svg_215" fill="black" height="7" width="7" y="249.93254" x="240.68474" shape-rendering="optimizeSpeed"/>
  <rect id="svg_216" fill="black" height="7" width="7" y="249.93254" x="247.68474" shape-rendering="optimizeSpeed"/>
  <rect id="svg_217" fill="black" height="7" width="7" y="256.93254" x="79.68474" shape-rendering="optimizeSpeed"/>
  <rect id="svg_218" fill="black" height="7" width="7" y="256.93254" x="100.68474" shape-rendering="optimizeSpeed"/>
  <rect id="svg_219" fill="black" height="7" width="7" y="256.93254" x="135.68474" shape-rendering="optimizeSpeed"/>
  <rect id="svg_220" fill="black" height="7" width="7" y="256.93254" x="142.68474" shape-rendering="optimizeSpeed"/>
  <rect id="svg_221" fill="black" height="7" width="7" y="256.93254" x="149.68474" shape-rendering="optimizeSpeed"/>
  <rect id="svg_222" fill="black" height="7" width="7" y="256.93254" x="156.68474" shape-rendering="optimizeSpeed"/>
  <rect id="svg_223" fill="black" height="7" width="7" y="256.93254" x="191.68474" shape-rendering="optimizeSpeed"/>
  <rect id="svg_224" fill="black" height="7" width="7" y="256.93254" x="198.68474" shape-rendering="optimizeSpeed"/>
  <rect id="svg_225" fill="black" height="7" width="7" y="256.93254" x="205.68474" shape-rendering="optimizeSpeed"/>
  <rect id="svg_226" fill="black" height="7" width="7" y="256.93254" x="212.68474" shape-rendering="optimizeSpeed"/>
  <rect id="svg_227" fill="black" height="7" width="7" y="256.93254" x="226.68474" shape-rendering="optimizeSpeed"/>
  <rect id="svg_228" fill="black" height="7" width="7" y="256.93254" x="233.68474" shape-rendering="optimizeSpeed"/>
  <rect id="svg_229" fill="black" height="7" width="7" y="256.93254" x="247.68474" shape-rendering="optimizeSpeed"/>
  <rect id="svg_230" fill="black" height="7" width="7" y="263.93254" x="79.68474" shape-rendering="optimizeSpeed"/>
  <rect id="svg_231" fill="black" height="7" width="7" y="263.93254" x="100.68474" shape-rendering="optimizeSpeed"/>
  <rect id="svg_232" fill="black" height="7" width="7" y="263.93254" x="107.68474" shape-rendering="optimizeSpeed"/>
  <rect id="svg_233" fill="black" height="7" width="7" y="263.93254" x="121.68474" shape-rendering="optimizeSpeed"/>
  <rect id="svg_234" fill="black" height="7" width="7" y="263.93254" x="135.68474" shape-rendering="optimizeSpeed"/>
  <rect id="svg_235" fill="black" height="7" width="7" y="263.93254" x="149.68474" shape-rendering="optimizeSpeed"/>
  <rect id="svg_236" fill="black" height="7" width="7" y="263.93254" x="177.68474" shape-rendering="optimizeSpeed"/>
  <rect id="svg_237" fill="black" height="7" width="7" y="263.93254" x="184.68474" shape-rendering="optimizeSpeed"/>
  <rect id="svg_238" fill="black" height="7" width="7" y="263.93254" x="191.68474" shape-rendering="optimizeSpeed"/>
  <rect id="svg_239" fill="black" height="7" width="7" y="263.93254" x="198.68474" shape-rendering="optimizeSpeed"/>
  <rect id="svg_240" fill="black" height="7" width="7" y="263.93254" x="205.68474" shape-rendering="optimizeSpeed"/>
  <rect id="svg_241" fill="black" height="7" width="7" y="263.93254" x="212.68474" shape-rendering="optimizeSpeed"/>
  <rect id="svg_242" fill="black" height="7" width="7" y="263.93254" x="219.68474" shape-rendering="optimizeSpeed"/>
  <rect id="svg_243" fill="black" height="7" width="7" y="263.93254" x="233.68474" shape-rendering="optimizeSpeed"/>
  <rect id="svg_244" fill="black" height="7" width="7" y="263.93254" x="240.68474" shape-rendering="optimizeSpeed"/>
  <rect id="svg_245" fill="black" height="7" width="7" y="270.93254" x="135.68474" shape-rendering="optimizeSpeed"/>
  <rect id="svg_246" fill="black" height="7" width="7" y="270.93254" x="142.68474" shape-rendering="optimizeSpeed"/>
  <rect id="svg_247" fill="black" height="7" width="7" y="270.93254" x="156.68474" shape-rendering="optimizeSpeed"/>
  <rect id="svg_248" fill="black" height="7" width="7" y="270.93254" x="163.68474" shape-rendering="optimizeSpeed"/>
  <rect id="svg_249" fill="black" height="7" width="7" y="270.93254" x="170.68474" shape-rendering="optimizeSpeed"/>
  <rect id="svg_250" fill="black" height="7" width="7" y="270.93254" x="177.68474" shape-rendering="optimizeSpeed"/>
  <rect id="svg_251" fill="black" height="7" width="7" y="270.93254" x="184.68474" shape-rendering="optimizeSpeed"/>
  <rect id="svg_252" fill="black" height="7" width="7" y="270.93254" x="191.68474" shape-rendering="optimizeSpeed"/>
  <rect id="svg_253" fill="black" height="7" width="7" y="270.93254" x="219.68474" shape-rendering="optimizeSpeed"/>
  <rect id="svg_254" fill="black" height="7" width="7" y="270.93254" x="233.68474" shape-rendering="optimizeSpeed"/>
  <rect id="svg_255" fill="black" height="7" width="7" y="270.93254" x="240.68474" shape-rendering="optimizeSpeed"/>
  <rect id="svg_256" fill="black" height="7" width="7" y="277.93254" x="79.68474" shape-rendering="optimizeSpeed"/>
  <rect id="svg_257" fill="black" height="7" width="7" y="277.93254" x="86.68474" shape-rendering="optimizeSpeed"/>
  <rect id="svg_258" fill="black" height="7" width="7" y="277.93254" x="93.68474" shape-rendering="optimizeSpeed"/>
  <rect id="svg_259" fill="black" height="7" width="7" y="277.93254" x="100.68474" shape-rendering="optimizeSpeed"/>
  <rect id="svg_260" fill="black" height="7" width="7" y="277.93254" x="107.68474" shape-rendering="optimizeSpeed"/>
  <rect id="svg_261" fill="black" height="7" width="7" y="277.93254" x="114.68474" shape-rendering="optimizeSpeed"/>
  <rect id="svg_262" fill="black" height="7" width="7" y="277.93254" x="121.68474" shape-rendering="optimizeSpeed"/>
  <rect id="svg_263" fill="black" height="7" width="7" y="277.93254" x="149.68474" shape-rendering="optimizeSpeed"/>
  <rect id="svg_264" fill="black" height="7" width="7" y="277.93254" x="156.68474" shape-rendering="optimizeSpeed"/>
  <rect id="svg_265" fill="black" height="7" width="7" y="277.93254" x="191.68474" shape-rendering="optimizeSpeed"/>
  <rect id="svg_266" fill="black" height="7" width="7" y="277.93254" x="205.68474" shape-rendering="optimizeSpeed"/>
  <rect id="svg_267" fill="black" height="7" width="7" y="277.93254" x="219.68474" shape-rendering="optimizeSpeed"/>
  <rect id="svg_268" fill="black" height="7" width="7" y="277.93254" x="247.68474" shape-rendering="optimizeSpeed"/>
  <rect id="svg_269" fill="black" height="7" width="7" y="284.93254" x="79.68474" shape-rendering="optimizeSpeed"/>
  <rect id="svg_270" fill="black" height="7" width="7" y="284.93254" x="121.68474" shape-rendering="optimizeSpeed"/>
  <rect id="svg_271" fill="black" height="7" width="7" y="284.93254" x="142.68474" shape-rendering="optimizeSpeed"/>
  <rect id="svg_272" fill="black" height="7" width="7" y="284.93254" x="163.68474" shape-rendering="optimizeSpeed"/>
  <rect id="svg_273" fill="black" height="7" width="7" y="284.93254" x="177.68474" shape-rendering="optimizeSpeed"/>
  <rect id="svg_274" fill="black" height="7" width="7" y="284.93254" x="184.68474" shape-rendering="optimizeSpeed"/>
  <rect id="svg_275" fill="black" height="7" width="7" y="284.93254" x="191.68474" shape-rendering="optimizeSpeed"/>
  <rect id="svg_276" fill="black" height="7" width="7" y="284.93254" x="219.68474" shape-rendering="optimizeSpeed"/>
  <rect id="svg_277" fill="black" height="7" width="7" y="284.93254" x="240.68474" shape-rendering="optimizeSpeed"/>
  <rect id="svg_278" fill="black" height="7" width="7" y="291.93254" x="79.68474" shape-rendering="optimizeSpeed"/>
  <rect id="svg_279" fill="black" height="7" width="7" y="291.93254" x="93.68474" shape-rendering="optimizeSpeed"/>
  <rect id="svg_280" fill="black" height="7" width="7" y="291.93254" x="100.68474" shape-rendering="optimizeSpeed"/>
  <rect id="svg_281" fill="black" height="7" width="7" y="291.93254" x="107.68474" shape-rendering="optimizeSpeed"/>
  <rect id="svg_282" fill="black" height="7" width="7" y="291.93254" x="121.68474" shape-rendering="optimizeSpeed"/>
  <rect id="svg_283" fill="black" height="7" width="7" y="291.93254" x="135.68474" shape-rendering="optimizeSpeed"/>
  <rect id="svg_284" fill="black" height="7" width="7" y="291.93254" x="142.68474" shape-rendering="optimizeSpeed"/>
  <rect id="svg_285" fill="black" height="7" width="7" y="291.93254" x="163.68474" shape-rendering="optimizeSpeed"/>
  <rect id="svg_286" fill="black" height="7" width="7" y="291.93254" x="170.68474" shape-rendering="optimizeSpeed"/>
  <rect id="svg_287" fill="black" height="7" width="7" y="291.93254" x="177.68474" shape-rendering="optimizeSpeed"/>
  <rect id="svg_288" fill="black" height="7" width="7" y="291.93254" x="184.68474" shape-rendering="optimizeSpeed"/>
  <rect id="svg_289" fill="black" height="7" width="7" y="291.93254" x="191.68474" shape-rendering="optimizeSpeed"/>
  <rect id="svg_290" fill="black" height="7" width="7" y="291.93254" x="198.68474" shape-rendering="optimizeSpeed"/>
  <rect id="svg_291" fill="black" height="7" width="7" y="291.93254" x="205.68474" shape-rendering="optimizeSpeed"/>
  <rect id="svg_292" fill="black" height="7" width="7" y="291.93254" x="212.68474" shape-rendering="optimizeSpeed"/>
  <rect id="svg_293" fill="black" height="7" width="7" y="291.93254" x="219.68474" shape-rendering="optimizeSpeed"/>
  <rect id="svg_294" fill="black" height="7" width="7" y="291.93254" x="247.68474" shape-rendering="optimizeSpeed"/>
  <rect id="svg_295" fill="black" height="7" width="7" y="298.93254" x="79.68474" shape-rendering="optimizeSpeed"/>
  <rect id="svg_296" fill="black" height="7" width="7" y="298.93254" x="93.68474" shape-rendering="optimizeSpeed"/>
  <rect id="svg_297" fill="black" height="7" width="7" y="298.93254" x="100.68474" shape-rendering="optimizeSpeed"/>
  <rect id="svg_298" fill="black" height="7" width="7" y="298.93254" x="107.68474" shape-rendering="optimizeSpeed"/>
  <rect id="svg_299" fill="black" height="7" width="7" y="298.93254" x="121.68474" shape-rendering="optimizeSpeed"/>
  <rect id="svg_300" fill="black" height="7" width="7" y="298.93254" x="135.68474" shape-rendering="optimizeSpeed"/>
  <rect id="svg_301" fill="black" height="7" width="7" y="298.93254" x="149.68474" shape-rendering="optimizeSpeed"/>
  <rect id="svg_302" fill="black" height="7" width="7" y="298.93254" x="177.68474" shape-rendering="optimizeSpeed"/>
  <rect id="svg_303" fill="black" height="7" width="7" y="298.93254" x="184.68474" shape-rendering="optimizeSpeed"/>
  <rect id="svg_304" fill="black" height="7" width="7" y="298.93254" x="191.68474" shape-rendering="optimizeSpeed"/>
  <rect id="svg_305" fill="black" height="7" width="7" y="298.93254" x="198.68474" shape-rendering="optimizeSpeed"/>
  <rect id="svg_306" fill="black" height="7" width="7" y="298.93254" x="205.68474" shape-rendering="optimizeSpeed"/>
  <rect id="svg_307" fill="black" height="7" width="7" y="298.93254" x="240.68474" shape-rendering="optimizeSpeed"/>
  <rect id="svg_308" fill="black" height="7" width="7" y="298.93254" x="247.68474" shape-rendering="optimizeSpeed"/>
  <rect id="svg_309" fill="black" height="7" width="7" y="305.93254" x="79.68474" shape-rendering="optimizeSpeed"/>
  <rect id="svg_310" fill="black" height="7" width="7" y="305.93254" x="93.68474" shape-rendering="optimizeSpeed"/>
  <rect id="svg_311" fill="black" height="7" width="7" y="305.93254" x="100.68474" shape-rendering="optimizeSpeed"/>
  <rect id="svg_312" fill="black" height="7" width="7" y="305.93254" x="107.68474" shape-rendering="optimizeSpeed"/>
  <rect id="svg_313" fill="black" height="7" width="7" y="305.93254" x="121.68474" shape-rendering="optimizeSpeed"/>
  <rect id="svg_314" fill="black" height="7" width="7" y="305.93254" x="149.68474" shape-rendering="optimizeSpeed"/>
  <rect id="svg_315" fill="black" height="7" width="7" y="305.93254" x="163.68474" shape-rendering="optimizeSpeed"/>
  <rect id="svg_316" fill="black" height="7" width="7" y="305.93254" x="177.68474" shape-rendering="optimizeSpeed"/>
  <rect id="svg_317" fill="black" height="7" width="7" y="305.93254" x="184.68474" shape-rendering="optimizeSpeed"/>
  <rect id="svg_318" fill="black" height="7" width="7" y="305.93254" x="198.68474" shape-rendering="optimizeSpeed"/>
  <rect id="svg_319" fill="black" height="7" width="7" y="305.93254" x="219.68474" shape-rendering="optimizeSpeed"/>
  <rect id="svg_320" fill="black" height="7" width="7" y="305.93254" x="226.68474" shape-rendering="optimizeSpeed"/>
  <rect id="svg_321" fill="black" height="7" width="7" y="305.93254" x="233.68474" shape-rendering="optimizeSpeed"/>
  <rect id="svg_322" fill="black" height="7" width="7" y="305.93254" x="240.68474" shape-rendering="optimizeSpeed"/>
  <rect id="svg_323" fill="black" height="7" width="7" y="305.93254" x="247.68474" shape-rendering="optimizeSpeed"/>
  <rect id="svg_324" fill="black" height="7" width="7" y="312.93254" x="79.68474" shape-rendering="optimizeSpeed"/>
  <rect id="svg_325" fill="black" height="7" width="7" y="312.93254" x="121.68474" shape-rendering="optimizeSpeed"/>
  <rect id="svg_326" fill="black" height="7" width="7" y="312.93254" x="135.68474" shape-rendering="optimizeSpeed"/>
  <rect id="svg_327" fill="black" height="7" width="7" y="312.93254" x="177.68474" shape-rendering="optimizeSpeed"/>
  <rect id="svg_328" fill="black" height="7" width="7" y="312.93254" x="212.68474" shape-rendering="optimizeSpeed"/>
  <rect id="svg_329" fill="black" height="7" width="7" y="312.93254" x="219.68474" shape-rendering="optimizeSpeed"/>
  <rect id="svg_330" fill="black" height="7" width="7" y="312.93254" x="233.68474" shape-rendering="optimizeSpeed"/>
  <rect id="svg_331" fill="black" height="7" width="7" y="312.93254" x="240.68474" shape-rendering="optimizeSpeed"/>
  <rect id="svg_332" fill="black" height="7" width="7" y="312.93254" x="247.68474" shape-rendering="optimizeSpeed"/>
  <rect id="svg_333" fill="black" height="7" width="7" y="319.93254" x="79.68474" shape-rendering="optimizeSpeed"/>
  <rect id="svg_334" fill="black" height="7" width="7" y="319.93254" x="86.68474" shape-rendering="optimizeSpeed"/>
  <rect id="svg_335" fill="black" height="7" width="7" y="319.93254" x="93.68474" shape-rendering="optimizeSpeed"/>
  <rect id="svg_336" fill="black" height="7" width="7" y="319.93254" x="100.68474" shape-rendering="optimizeSpeed"/>
  <rect id="svg_337" fill="black" height="7" width="7" y="319.93254" x="107.68474" shape-rendering="optimizeSpeed"/>
  <rect id="svg_338" fill="black" height="7" width="7" y="319.93254" x="114.68474" shape-rendering="optimizeSpeed"/>
  <rect id="svg_339" fill="black" height="7" width="7" y="319.93254" x="121.68474" shape-rendering="optimizeSpeed"/>
  <rect id="svg_340" fill="black" height="7" width="7" y="319.93254" x="135.68474" shape-rendering="optimizeSpeed"/>
  <rect id="svg_341" fill="black" height="7" width="7" y="319.93254" x="170.68474" shape-rendering="optimizeSpeed"/>
  <rect id="svg_342" fill="black" height="7" width="7" y="319.93254" x="177.68474" shape-rendering="optimizeSpeed"/>
  <rect id="svg_343" fill="black" height="7" width="7" y="319.93254" x="191.68474" shape-rendering="optimizeSpeed"/>
  <rect id="svg_344" fill="black" height="7" width="7" y="319.93254" x="198.68474" shape-rendering="optimizeSpeed"/>
  <rect id="svg_345" fill="black" height="7" width="7" y="319.93254" x="226.68474" shape-rendering="optimizeSpeed"/>
  <rect id="svg_346" fill="black" height="7" width="7" y="319.93254" x="247.68474" shape-rendering="optimizeSpeed"/>
  <text xml:space="preserve" text-anchor="start" font-family="'JetBrains Mono'" font-size="60" id="svg_347" y="346.1365" x="-6.81747" stroke-width="0" stroke="#000" fill="#000000"/>
  <text font-weight="bold" xml:space="preserve" text-anchor="start" font-family="'Changa'" font-size="80" id="svg_350" y="118.81694" x="16.61754" stroke-width="0" stroke="#000" fill="#000000">ScanApp</text>
 </g>

</svg>