<?xml version="1.0" encoding="iso-8859-1"?>
<!-- Generator: Adobe Illustrator 19.0.0, SVG Export Plug-In . SVG Version: 6.00 Build 0)  -->
<svg version="1.1" id="Layer_1" xmlns="http://www.w3.org/2000/svg" xmlns:xlink="http://www.w3.org/1999/xlink" x="0px" y="0px"
	 viewBox="0 0 489.925 489.925" style="enable-background:new 0 0 489.925 489.925;" xml:space="preserve">
<g>
	<g>
		<circle id="XMLID_1098_" style="fill:#A7A9AC;" cx="244.933" cy="244.825" r="176.8"/>
		<path d="M489.833,244.825c0-65.4-25.5-126.9-71.7-173.2c-95.5-95.5-250.9-95.5-346.4,0c-90.3,90.4-95.8,235.3-13.3,332
			c-8.3,17.6-22.3,39.2-44,49.9c-7.2,3.5-11.2,11.2-10,19.1s7.3,14.1,15.2,15.3c4.6,0.7,11.1,1.4,19,1.4c21.8,0,54.5-5.3,87.6-30.1
			c37.2,20.6,77.9,30.7,118.5,30.7c63.4,0,126.1-24.6,173.3-71.8C464.333,371.725,489.833,310.225,489.833,244.825z
			 M130.033,440.425c-3.8-2.3-8.6-1.4-11.4,1.9c-0.4,0.2-0.8,0.5-1.2,0.8c-40.3,31.3-79.8,29.2-95,26.8c0-0.1-0.1-0.2,0-0.2
			c28.3-13.9,45.3-41.9,54.5-62.9c0.9-2,0.9-4.2,0.3-6.2c-0.1-2-0.8-3.9-2.2-5.5c-79.3-89.6-75.1-226,9.5-310.7
			c88.4-88.4,232.3-88.4,320.7,0c42.8,42.8,66.4,99.8,66.4,160.4s-23.6,117.5-66.4,160.4
			C332.133,478.225,219.033,492.725,130.033,440.425z"/>
		<path d="M260.533,235.625h-31.3c-13.9,0-25.3-11.3-25.3-25.3s11.3-25.3,25.3-25.3h55.2c5,0,9.1-4.1,9.1-9.1s-4.1-9.1-9.1-9.1
			h-30.5v-23.7c0-5-4.1-9.1-9.1-9.1s-9.1,4.1-9.1,9.1v23.8h-6.6c-23.9,0-43.4,19.5-43.4,43.4s19.5,43.4,43.4,43.4h31.3
			c13.9,0,25.3,11.3,25.3,25.3c0,13.9-11.3,25.3-25.3,25.3h-56.3c-5,0-9.1,4.1-9.1,9.1s4.1,9.1,9.1,9.1h31.6v24.1
			c0,5,4.1,9.1,9.1,9.1s9.1-4.1,9.1-9.1v-24.1h6.6c23.9,0,43.4-19.5,43.4-43.4C303.933,255.025,284.433,235.625,260.533,235.625z"/>
		<path d="M108.333,357.525c-3.7,3.4-3.9,9.1-0.6,12.8c1.8,2,4.2,2.9,6.7,2.9c2.2,0,4.4-0.8,6.1-2.4c3.7-3.4,3.9-9.1,0.6-12.8
			C117.833,354.325,112.033,354.125,108.333,357.525z"/>
		<path d="M114.233,134.825c2.5,0,4.9-1,6.7-3c3.4-3.7,3.1-9.4-0.6-12.8s-9.4-3.1-12.8,0.6s-3.1,9.4,0.6,12.8
			C109.833,134.025,112.033,134.825,114.233,134.825z"/>
		<path d="M409.733,213.825c0.8,4.4,4.6,7.4,8.9,7.4c0.6,0,1.1-0.1,1.7-0.2c4.9-0.9,8.2-5.6,7.3-10.6c-0.9-4.9-5.7-8.2-10.6-7.2
			C412.033,204.125,408.833,208.925,409.733,213.825z"/>
		<path d="M89.933,330.525c-4.2,2.6-5.6,8.2-2.9,12.5c1.7,2.8,4.7,4.3,7.7,4.3c1.6,0,3.3-0.4,4.8-1.4c4.2-2.7,5.5-8.2,2.9-12.5
			S94.233,327.925,89.933,330.525z"/>
		<path d="M319.533,94.625c1.3,0.6,2.7,0.9,4,0.9c3.3,0,6.5-1.8,8.1-5c2.2-4.5,0.4-9.9-4.1-12.2c-4.5-2.2-9.9-0.4-12.2,4.1
			C313.233,86.925,315.033,92.325,319.533,94.625z"/>
		<path d="M401.233,184.125L401.233,184.125c1.4,3.6,4.8,5.8,8.4,5.8c1.1,0,2.2-0.2,3.3-0.6c4.7-1.8,7-7.1,5.2-11.7
			c-1.8-4.7-7-7-11.7-5.2C401.733,174.125,399.433,179.425,401.233,184.125z"/>
		<path d="M290.733,83.425c0.8,0.2,1.7,0.3,2.5,0.3c3.9,0,7.6-2.6,8.7-6.6c1.3-4.8-1.4-9.8-6.3-11.2c-4.8-1.4-9.8,1.4-11.2,6.2
			C283.033,77.125,285.833,82.125,290.733,83.425z"/>
		<path d="M88.633,305.725c-1.8-4.7-7.1-7-11.7-5.2c-4.7,1.8-7,7.1-5.2,11.7c1.4,3.6,4.8,5.8,8.4,5.8c1.1,0,2.2-0.2,3.3-0.6
			C88.133,315.725,90.433,310.425,88.633,305.725z"/>
		<path d="M319.833,394.925c-4.5,2.2-6.3,7.7-4,12.2c1.6,3.2,4.8,5,8.1,5c1.4,0,2.8-0.3,4-0.9c4.5-2.3,6.3-7.7,4-12.2
			C329.833,394.425,324.333,392.625,319.833,394.925z"/>
		<path d="M421.633,235.525c-5,0-9.1,4.1-9.1,9.1s4.1,9,9.1,9s9.1-4.1,9.1-9.1C430.733,239.625,426.633,235.525,421.633,235.525z"/>
		<path d="M420.333,268.225c-4.9-0.9-9.6,2.3-10.6,7.3c-0.9,4.9,2.3,9.6,7.3,10.6c0.6,0.1,1.1,0.1,1.7,0.1c4.3,0,8.1-3,8.9-7.4
			C428.533,273.825,425.333,269.125,420.333,268.225z"/>
		<path d="M72.833,286.625c4.9-0.9,8.2-5.7,7.3-10.6c-0.9-4.9-5.7-8.2-10.6-7.2c-4.9,0.9-8.2,5.7-7.2,10.6c0.8,4.4,4.6,7.4,8.9,7.4
			C71.733,286.725,72.233,286.725,72.833,286.625z"/>
		<path d="M345.833,110.925c1.6,1.2,3.5,1.8,5.4,1.8c2.8,0,5.5-1.2,7.3-3.6c3-4,2.2-9.7-1.8-12.7s-9.7-2.2-12.7,1.8
			C341.033,102.225,341.833,107.925,345.833,110.925z"/>
		<path d="M400.133,330.025c-4.3-2.6-9.8-1.3-12.5,2.9c-2.6,4.3-1.3,9.9,2.9,12.5c1.5,0.9,3.1,1.4,4.8,1.4c3,0,6-1.5,7.7-4.3
			C405.733,338.225,404.333,332.625,400.133,330.025z"/>
		<path d="M413.133,300.025c-4.7-1.8-9.9,0.5-11.7,5.2l0,0c-1.8,4.7,0.5,9.9,5.2,11.7c1.1,0.4,2.2,0.6,3.3,0.6
			c3.6,0,7.1-2.2,8.5-5.8l0,0C420.133,307.125,417.833,301.825,413.133,300.025z"/>
		<path d="M77.133,245.225c0-0.1,0-0.1,0-0.2s0-0.1,0-0.2c0-5-4.1-9.1-9.1-9.1s-9.1,4.1-9.1,9.1c0,0.1,0,0.1,0,0.2
			c0,0.1,0,0.1,0,0.2c0,5,4.1,9.1,9.1,9C73.133,254.325,77.133,250.225,77.133,245.225z"/>
		<path d="M69.433,221.225c0.5,0.1,1.1,0.2,1.7,0.2c4.3,0,8.1-3.1,8.9-7.4c0.9-4.9-2.3-9.6-7.3-10.6c-4.9-0.9-9.6,2.3-10.6,7.3
			C61.233,215.625,64.533,220.325,69.433,221.225z"/>
		<path d="M76.733,189.425c1.1,0.4,2.2,0.6,3.3,0.6c3.6,0,7-2.2,8.4-5.8c1.8-4.7-0.5-9.9-5.2-11.7s-9.9,0.5-11.7,5.2
			C69.733,182.325,72.033,187.625,76.733,189.425z"/>
		<path d="M89.733,159.525c1.5,0.9,3.1,1.4,4.8,1.4c3,0,6-1.5,7.7-4.3c2.6-4.3,1.3-9.8-2.9-12.5c-4.3-2.6-9.8-1.3-12.5,2.9
			C84.233,151.225,85.533,156.825,89.733,159.525z"/>
		<path d="M229.733,411.825c-5-0.4-9.4,3.2-9.8,8.2c-0.5,5,3.2,9.4,8.2,9.8c0.3,0,0.5,0,0.8,0c4.7,0,8.6-3.5,9-8.3
			C238.333,416.725,234.633,412.325,229.733,411.825z"/>
		<path d="M199.333,406.225c-4.8-1.4-9.8,1.5-11.2,6.3c-1.3,4.8,1.5,9.8,6.3,11.2c0.8,0.2,1.7,0.3,2.5,0.3c3.9,0,7.6-2.6,8.7-6.6
			C206.933,412.625,204.133,407.625,199.333,406.225z"/>
		<path d="M170.433,395.125c-4.5-2.2-9.9-0.4-12.1,4.1c-2.2,4.5-0.4,9.9,4.1,12.2c1.3,0.6,2.7,0.9,4,0.9c3.3,0,6.5-1.9,8.1-5
			C176.733,402.825,174.933,397.325,170.433,395.125z"/>
		<path d="M291.033,406.125c-4.8,1.4-7.6,6.4-6.2,11.2c1.1,4,4.8,6.6,8.7,6.6c0.8,0,1.7-0.1,2.5-0.4c4.8-1.4,7.6-6.4,6.2-11.2
			C300.933,407.525,295.833,404.725,291.033,406.125z"/>
		<path d="M166.033,95.625c1.3,0,2.7-0.3,4-1c4.5-2.2,6.3-7.7,4-12.2c-2.2-4.5-7.7-6.3-12.1-4c-4.5,2.2-6.3,7.7-4.1,12.2
			C159.533,93.825,162.733,95.625,166.033,95.625z"/>
		<path d="M144.033,378.925c-4-3-9.7-2.2-12.7,1.8s-2.2,9.7,1.8,12.7c1.6,1.2,3.5,1.8,5.4,1.8c2.8,0,5.5-1.2,7.3-3.6
			C148.833,387.625,148.133,381.925,144.033,378.925z"/>
		<path d="M375.433,134.725c2.2,0,4.4-0.8,6.1-2.4c3.7-3.4,3.9-9.1,0.6-12.8c-3.4-3.7-9.1-4-12.8-0.6c-3.7,3.4-4,9.1-0.6,12.8
			C370.533,133.725,372.933,134.725,375.433,134.725z"/>
		<path d="M260.233,77.825c0.3,0,0.6,0,0.8,0c4.6,0,8.6-3.5,9-8.2c0.4-5-3.2-9.4-8.2-9.8c-5-0.5-9.4,3.2-9.8,8.2
			C251.633,72.925,255.233,77.325,260.233,77.825z"/>
		<path d="M346.133,378.525c-4,3-4.8,8.7-1.7,12.7c1.8,2.4,4.5,3.6,7.2,3.6c1.9,0,3.8-0.6,5.5-1.9c4-3,4.8-8.7,1.8-12.7
			C355.833,376.325,350.133,375.525,346.133,378.525z"/>
		<path d="M369.033,357.625c-3.4,3.7-3.1,9.4,0.6,12.8c1.8,1.6,3.9,2.4,6.1,2.4c2.5,0,4.9-1,6.7-3c3.4-3.7,3.1-9.4-0.6-12.8
			S372.333,353.925,369.033,357.625z"/>
		<path d="M260.633,411.825c-5,0.5-8.6,4.9-8.2,9.9c0.4,4.7,4.4,8.2,9,8.2c0.3,0,0.6,0,0.8,0c5-0.5,8.7-4.9,8.2-9.9
			C270.033,415.025,265.633,411.325,260.633,411.825z"/>
		<path d="M196.433,83.825c0.8,0,1.7-0.1,2.5-0.4c4.8-1.3,7.6-6.4,6.2-11.2c-1.4-4.8-6.4-7.6-11.2-6.2s-7.6,6.4-6.2,11.2
			C188.833,81.225,192.433,83.825,196.433,83.825z"/>
		<path d="M228.433,77.825c0.3,0,0.6,0,0.8,0c5-0.5,8.7-4.9,8.2-9.8c-0.5-5-4.9-8.7-9.9-8.2s-8.6,4.9-8.2,9.8
			C219.933,74.325,223.833,77.825,228.433,77.825z"/>
		<path d="M395.133,160.725c1.7,0,3.3-0.4,4.8-1.4c4.3-2.6,5.5-8.2,2.9-12.5s-8.2-5.5-12.5-2.9c-4.2,2.6-5.5,8.2-2.9,12.5
			C389.133,159.225,392.133,160.725,395.133,160.725z"/>
		<path d="M138.333,112.825c1.9,0,3.8-0.6,5.5-1.8l0,0c4-3,4.8-8.7,1.8-12.7s-8.7-4.8-12.7-1.8s-4.8,8.7-1.8,12.7
			C132.833,111.625,135.533,112.825,138.333,112.825z"/>
	</g>
</g>
<g>
</g>
<g>
</g>
<g>
</g>
<g>
</g>
<g>
</g>
<g>
</g>
<g>
</g>
<g>
</g>
<g>
</g>
<g>
</g>
<g>
</g>
<g>
</g>
<g>
</g>
<g>
</g>
<g>
</g>
</svg>
