<?xml version="1.0" encoding="iso-8859-1"?>
<!-- Generator: Adobe Illustrator 19.0.0, SVG Export Plug-In . SVG Version: 6.00 Build 0)  -->
<svg version="1.1" id="Layer_1" xmlns="http://www.w3.org/2000/svg" xmlns:xlink="http://www.w3.org/1999/xlink" x="0px" y="0px"
	 viewBox="0 0 512 512" style="enable-background:new 0 0 512 512;" xml:space="preserve">
<g>
	<g>
		<path d="M392.943,112.864H332.66c-2.808-10.057-6.617-19.767-11.273-28.769h71.557c23.185,0,42.047-18.863,42.047-42.047
			S416.129,0,392.944,0H119.056C95.871,0,77.009,18.863,77.009,42.047s18.863,42.047,42.047,42.047h64.51
			c22.431,0,43.529,10.96,56.823,28.769H119.056c-23.185,0-42.047,18.863-42.047,42.047c0,23.185,18.863,42.047,42.047,42.047
			h121.447c-13.279,17.809-34.419,28.769-56.936,28.769h-64.51c-23.185,0-42.047,18.739-42.047,41.771
			c0,11.666,4.714,22.49,13.281,30.523l181.148,200.173c7.937,8.773,19.305,13.806,31.191,13.806
			c10.427,0,20.441-3.865,28.198-10.884c8.329-7.535,13.225-17.863,13.786-29.082c0.561-11.221-3.279-21.986-10.818-30.321
			L211.667,306.963c44.675-8.307,83.878-36.25,106.933-76.969c2.258-3.988,0.855-9.052-3.133-11.311
			c-3.988-2.257-9.052-0.855-11.311,3.133c-23.07,40.742-64.156,67.178-109.909,70.716c-3.158,0.245-5.901,2.264-7.072,5.206
			s-0.564,6.294,1.562,8.641l132.753,146.475c4.561,5.041,6.885,11.557,6.545,18.35c-0.34,6.792-3.303,13.043-8.345,17.604
			c-4.7,4.252-10.76,6.594-17.062,6.594c-7.204,0-14.087-3.041-18.884-8.343L102.357,286.619c-0.169-0.187-0.346-0.366-0.531-0.537
			c-5.3-4.88-8.219-11.48-8.219-18.584c0-13.88,11.417-25.173,25.45-25.173h64.51c33.529,0,64.57-19.664,79.081-50.094
			c1.226-2.57,1.047-5.591-0.472-8c-1.52-2.409-4.17-3.869-7.019-3.869h-136.1c-14.033,0-25.45-11.416-25.45-25.45
			s11.417-25.45,25.45-25.45h136.002c2.85,0,5.502-1.463,7.021-3.875c1.52-2.412,1.695-5.434,0.465-8.006
			c-14.557-30.426-45.558-50.085-78.978-50.085h-64.51c-14.033,0-25.45-11.416-25.45-25.45s11.417-25.45,25.45-25.45h273.887
			c14.033,0,25.45,11.416,25.45,25.45s-11.417,25.45-25.45,25.45h-86.046c-3.06,0-5.871,1.683-7.315,4.381
			c-1.445,2.698-1.288,5.971,0.407,8.517c8.255,12.398,14.531,27.148,18.151,42.655c0.876,3.755,4.225,6.412,8.082,6.412h66.721
			c14.033,0,25.45,11.416,25.45,25.45c0,14.034-11.417,25.45-25.45,25.45h-66.97c-4.583,0-8.299,3.715-8.299,8.299
			c0,4.584,3.716,8.299,8.299,8.299h66.97c23.185,0,42.047-18.863,42.047-42.047C434.99,131.726,416.128,112.864,392.943,112.864z"
			/>
	</g>
</g>
<g>
</g>
<g>
</g>
<g>
</g>
<g>
</g>
<g>
</g>
<g>
</g>
<g>
</g>
<g>
</g>
<g>
</g>
<g>
</g>
<g>
</g>
<g>
</g>
<g>
</g>
<g>
</g>
<g>
</g>
</svg>
